HIERARCHY
ROOT Hips
{
  OFFSET 267.745 86.9975 -272.335
  CHANNELS 6 Xposition Yposition Zposition Zrotation Xrotation Yrotation
  JOINT LeftUpLeg
  {
    OFFSET 8.64259 1.95398 -2.38835
    CHANNELS 3 Zrotation Xrotation Yrotation
    JOINT LeftLeg
    {
      OFFSET 43.7702 0 0
      CHANNELS 3 Zrotation Xrotation Yrotation
      JOINT LeftFoot
      {
        OFFSET 40.6238 0 0
        CHANNELS 3 Zrotation Xrotation Yrotation
        JOINT LeftToeBase
        {
          OFFSET 12.7242 0 0
          CHANNELS 3 Zrotation Xrotation Yrotation
          End Site
          {
            OFFSET 0 0 0
          }
        }
      }
    }
  }
  JOINT RightUpLeg
  {
    OFFSET -8.2249 1.95398 -2.59336
    CHANNELS 3 Zrotation Xrotation Yrotation
    JOINT RightLeg
    {
      OFFSET 43.5653 0 0
      CHANNELS 3 Zrotation Xrotation Yrotation
      JOINT RightFoot
      {
        OFFSET 40.6238 0 0
        CHANNELS 3 Zrotation Xrotation Yrotation
        JOINT RightToeBase
        {
          OFFSET 12.7242 0 0
          CHANNELS 3 Zrotation Xrotation Yrotation
          End Site
          {
            OFFSET 0 0 0
          }
        }
      }
    }
  }
  JOINT Spine
  {
    OFFSET 0.165834 0.87714 6.61349
    CHANNELS 3 Zrotation Xrotation Yrotation
    JOINT Spine1
    {
      OFFSET 7.38963 1.71661e-005 0
      CHANNELS 3 Zrotation Xrotation Yrotation
      JOINT Spine2
      {
        OFFSET 11.9445 1.14441e-005 0
        CHANNELS 3 Zrotation Xrotation Yrotation
        JOINT Spine3
        {
          OFFSET 14.7254 4.19617e-005 0
          CHANNELS 3 Zrotation Xrotation Yrotation
          JOINT Spine4
          {
            OFFSET 10.9679 0 0
            CHANNELS 3 Zrotation Xrotation Yrotation
            JOINT RightShoulder
            {
              OFFSET 2.46616 -1.6653 3.69651
              CHANNELS 3 Zrotation Xrotation Yrotation
              JOINT RightArm
              {
                OFFSET 13.0012 0 0
                CHANNELS 3 Zrotation Xrotation Yrotation
                JOINT RightForeArm
                {
                  OFFSET 28.7848 1.52588e-005 0
                  CHANNELS 3 Zrotation Xrotation Yrotation
                  JOINT RightHand
                  {
                    OFFSET 26.5688 1.52588e-005 0
                    CHANNELS 3 Zrotation Xrotation Yrotation
                    End Site
                    {
                      OFFSET 0 0 0
                    }
                  }
                }
              }
            }
            JOINT LeftShoulder
            {
              OFFSET 2.38034 -1.29275 -3.7523
              CHANNELS 3 Zrotation Xrotation Yrotation
              JOINT LeftArm
              {
                OFFSET 16.3182 6.10352e-005 0
                CHANNELS 3 Zrotation Xrotation Yrotation
                JOINT LeftForeArm
                {
                  OFFSET 27.0901 0 0
                  CHANNELS 3 Zrotation Xrotation Yrotation
                  JOINT LeftHand
                  {
                    OFFSET 24.5451 1.52588e-005 0
                    CHANNELS 3 Zrotation Xrotation Yrotation
                    End Site
                    {
                      OFFSET 0 0 0
                    }
                  }
                }
              }
            }
            JOINT Neck
            {
              OFFSET 5.0226 -0.0266342 0
              CHANNELS 3 Zrotation Xrotation Yrotation
              JOINT Head
              {
                OFFSET 6.69364 2.86102e-005 0
                CHANNELS 3 Zrotation Xrotation Yrotation
                End Site
                {
                  OFFSET 0 0 0
                }
              }
            }
          }
        }
      }
    }
  }
}
MOTION
Frames:	12
Frame Time:	0.0416667
49.3295 95.9933 -61.8361 132.334 -81.4207 133.401 177.139 16.8482 92.5579 -12.5943 14.635 2.91311 48.3661 -1.42781 7.43194 47.6381 -1.75254 7.18829 174.832 0.419979 91.8117 -30.5719 -4.43843 1.10895 70.6049 3.8553 17.9898 28.5579 -0.0843841 1.51934 0.0251553 7.73954 -90.5148 11.3928 -0.190117 -1.00612 -0.278471 -0.234208 -0.996786 -22.8105 0.121036 -1.01674 -2.79788 0.121037 -1.01675 102.521 -50.2211 -81.6148 28.7325 -6.83171 -6.24926 -8.0203 -16.2937 -29.5266 -9.64451 -0.362175 -0.851511 -80.7294 -52.3585 92.6042 -32.6303 -7.5046 0.787553 9.55417 48.4247 -13.185 -10.4591 -0.0252049 -5.29401 -0.468048 -7.59599 -5.57228 -18.1816 -6.41634 -3.12066 
49.4824 95.4154 -53.9422 -175.512 -84.4755 -172.931 177.389 19.0887 93.3291 -11.2385 27.6884 8.08107 56.53 -0.716345 3.02413 49.8134 -1.87027 6.96725 175.468 -3.7681 91.9649 -30.4942 -10.3814 0.13692 68.8258 2.41556 16.4498 36.1634 -1.92426 4.54411 0.292173 7.80965 -90.614 11.2546 0.295744 -1.25139 -0.416892 0.24038 -1.2632 -22.9483 0.658137 -1.10468 -2.93566 0.658137 -1.10469 102.436 -49.7421 -81.744 28.5229 -7.89389 -6.94848 -8.23225 -14.9904 -31.3799 -10.5784 -0.320676 -1.68597 -80.5014 -53.1419 92.9773 -31.4523 -7.66385 2.63953 10.0813 46.8954 -14.5052 -13.5322 -0.00730531 -5.21305 -1.79814 -8.82586 -4.49019 -18.7821 -7.45671 -6.12605 
50.0681 94.0216 -45.127 -128.024 -80.0572 -125.826 176.832 17.5955 94.1308 -16.2562 27.605 7.76741 52.893 -2.06027 4.87374 50.946 -1.9704 6.52946 176.235 -5.75691 89.9287 -35.8514 -17.0248 -2.60864 64.4734 3.6062 16.4413 48.696 -4.2758 6.82315 0.37779 7.89031 -90.4063 11.0936 0.563432 -0.864761 -0.577559 0.524826 -0.888717 -23.1122 0.79728 -0.655447 -3.09949 0.797267 -0.655466 102.077 -50.1792 -82.3048 28.837 -8.14552 -6.14239 -8.11489 -16.0266 -30.1959 -11.3388 -0.322107 -1.83527 -80.0834 -53.7077 93.6133 -29.5672 -7.65146 2.03224 8.75624 45.8903 -13.0843 -10.743 0.00685336 -5.78069 -4.51702 -9.48124 -3.87441 -17.8284 -8.01643 -8.90941 
50.113 92.7388 -36.8789 -121.977 -76.0089 -122.846 178.63 18.0916 91.2131 -28.8255 25.9315 5.95053 54.4001 -2.14945 8.19707 46.1598 -1.82518 2.71737 175.078 -2.77159 84.4014 -49.2046 -17.4488 -3.66575 53.5036 7.98998 16.2217 35.8563 -1.92711 7.67376 0.0375083 8.04648 -89.8244 10.7841 0.15583 0.33699 -0.886799 0.170515 0.329797 -23.4219 0.0473391 0.368236 -3.40928 0.0473427 0.368237 102.378 -50.6135 -81.8383 31.3924 -6.19515 -4.64399 -5.97365 -17.3764 -25.293 -13.1138 -0.6519 0.513192 -81.2033 -52.9483 91.9369 -28.5176 -7.63347 -3.0819 6.09269 48.7322 -8.67051 -9.8207 -0.0843333 -4.49885 -7.16882 -11.2414 -3.54663 -18.5946 -9.30146 -13.4813 
49.6842 93.0376 -30.2947 -112.937 -69.5242 -114.74 -177.363 14.0064 90.6623 -31.7483 22.0331 3.76181 59.3082 0.646052 11.2832 46.1956 -1.90467 1.09219 175.709 9.12471 83.4299 -67.6921 -13.8138 -3.60386 47.0411 9.80025 10.9985 33.0028 -0.761895 -5.52331 -0.23644 8.22091 -89.5195 10.4322 -0.250636 0.976662 -1.23912 -0.207419 0.986739 -23.7721 -0.532568 0.856201 -3.75945 -0.532575 0.856191 102.176 -50.5136 -82.1521 33.6236 -6.15305 -5.92623 -3.98629 -20.4136 -19.0003 -10.9744 -0.683028 2.13501 -81.8816 -52.0058 90.8759 -27.2339 -8.28747 -11.8993 2.67909 46.6944 -2.85692 -8.75182 -0.137228 -3.53189 -7.4791 -11.1695 -3.15005 -18.6675 -9.36133 -12.7077 
48.3163 94.0948 -24.0655 -106.183 -65.4474 -105.299 -175.036 10.5175 93.2177 -31.854 18.5158 3.60514 62.5896 2.33275 11.3442 46.9153 -1.95044 1.73425 172.199 18.773 88.4707 -69.0469 -14.7285 -0.579281 51.3114 8.36553 15.5197 31.4686 -0.735583 0.937849 -0.710108 8.18695 -89.7955 10.5025 -1.32064 0.524085 -1.16793 -1.29629 0.581704 -23.7082 -1.41708 0.102879 -3.69559 -1.41709 0.102872 101.907 -50.9719 -82.5673 34.0044 -7.07654 -3.97958 -5.66298 -21.8693 -20.3873 -5.61357 -0.248241 0.12973 -82.0233 -50.2722 90.5368 -26.4844 -7.08559 -19.5989 3.40635 40.9438 -3.92046 -0.474311 -0.0543222 -1.59099 -7.61366 -10.1476 -3.14306 -17.6775 -8.73384 -10.2902 
46.4046 94.8728 -18.4211 -101.089 -60.6623 -99.9133 -173.135 5.33466 94.8897 -28.9029 15.4393 2.48961 63.5944 2.84958 11.3502 48.6256 -2.02932 3.23818 168.145 22.967 90.7829 -54.585 -11.2116 3.42594 56.1329 7.06676 19.7334 34.2212 -1.40825 4.50012 -1.05311 8.05586 -89.8224 10.7681 -2.01506 0.53954 -0.901455 -1.98934 0.627724 -23.4493 -2.08401 -0.0912775 -3.43666 -2.08401 -0.0912815 102.376 -51.3228 -81.8452 35.4603 -7.54646 -1.10169 -6.57336 -22.512 -22.277 -8.12719 -0.432252 0.97215 -81.7381 -49.4343 90.909 -22.5823 -5.59096 -25.8429 4.80808 33.5723 -8.91372 1.59649 -0.000556112 -1.77536 -6.83413 -9.25748 -3.03378 -18.6164 -7.60709 -11.2764 
43.912 95.6721 -13.12 -96.6873 -53.884 -97.0065 -172.276 -1.26299 90.464 -21.5712 10.4687 1.38244 61.4424 1.77662 10.3113 51.0655 -1.98963 6.34146 169.009 20.792 91.1353 -27.7107 0.735877 6.26041 57.0297 6.51439 17.2563 40.0308 -2.73027 4.61256 -0.963186 7.8524 -89.7916 11.1748 -1.82018 0.592873 -0.495018 -1.79234 0.672418 -23.0404 -1.91421 0.0182292 -3.02771 -1.91419 0.0182281 102.292 -50.9764 -81.9724 36.7851 -5.30118 0.829906 -5.63806 -22.379 -20.3832 -8.56964 -0.501521 1.7304 -80.9751 -49.9411 92.105 -18.4164 -4.19267 -31.1619 7.05865 27.7896 -16.8198 0.623285 -0.0510229 -2.83086 -5.11871 -8.3178 -1.71712 -19.2485 -6.82322 -10.0698 
40.3811 96.0105 -8.25131 -92.7377 -48.6115 -96.0034 -172.238 -7.30763 90.1998 -14.1641 8.31853 0.321427 56.278 0.103773 6.96808 57.1711 -1.87252 9.7687 177.2 22.174 89.9471 -12.7273 19.6182 0.157644 60.2127 9.73712 19.8872 36.9802 -2.04501 1.11627 -0.873457 7.54685 -89.7403 11.7858 -1.61504 0.688783 0.11564 -1.58317 0.759197 -22.4274 -1.74736 0.171423 -2.41474 -1.74736 0.171417 101.932 -50.6906 -82.5285 36.9391 -2.88981 1.31061 -4.15171 -25.0549 -15.7248 -7.258 -0.432592 1.88584 -80.9623 -49.9482 92.1252 -17.0681 -2.61201 -32.5742 10.5885 23.6806 -26.8393 1.65474 -0.0525853 -3.29091 -3.32705 -7.37765 -0.00619129 -18.793 -6.20448 -8.99967 
35.734 94.9997 -2.69471 -93.1029 -46.4364 -96.7955 -172.588 -8.33944 89.8471 -21.558 8.9923 0.706957 53.2086 -2.03615 2.66112 66.0099 -1.60764 12.3 175.368 22.9803 88.6819 -18.5058 18.8292 1.45024 59.7612 10.1341 19.2816 34.1672 -1.28219 0.157484 -0.914282 7.58799 -90.0172 11.706 -1.82648 0.155103 0.0364068 -1.81791 0.23537 -22.5093 -1.78862 -0.401182 -2.49665 -1.78864 -0.401187 101.777 -50.5561 -82.7703 35.7409 -0.397697 0.186782 -2.14096 -25.894 -11.0116 -7.35834 -0.447881 2.02508 -80.745 -51.5715 92.5417 -16.1879 1.30577 -31.6682 14.2379 22.501 -36.0128 3.01191 -0.0685349 -3.92873 -0.730807 -6.9549 1.14866 -18.9332 -6.00961 -8.14996 
29.4956 94.2895 2.52783 -93.9043 -42.7188 -95.363 -171.839 -2.58814 94.1044 -37.5428 6.55237 1.48597 42.7886 -7.38089 -2.12963 65.0687 -2.35839 6.91099 172.823 22.9618 90.538 -30.0928 12.0385 4.389 63.7537 8.69817 15.1877 22.1649 2.24778 -4.02979 -0.596608 7.56631 -90.6405 11.7303 -1.48721 -1.11778 0.0597163 -1.53497 -1.05125 -22.4752 -1.08256 -1.51304 -2.46253 -1.08256 -1.51303 101.797 -49.9932 -82.7414 33.8321 1.1031 0.751839 -2.26473 -24.3535 -11.8096 -9.3073 -0.680796 3.46555 -80.533 -52.6425 92.9083 -18.8745 7.30727 -26.6428 21.2754 28.28 -42.2308 -1.63754 -0.0928539 -4.78808 -1.6978 -7.28745 0.978748 -18.9638 -6.51776 -6.71629 
23.0305 93.7319 6.62989 -95.2425 -37.4784 -94.7686 -174.35 7.12291 93.5371 -57.7295 5.23751 2.54365 44.2161 -5.7002 2.26529 56.645 -2.73408 3.14274 172.247 20.0692 92.2747 -37.3628 7.37062 5.43658 70.0038 5.5993 13.5946 22.8515 1.89162 -2.73258 -0.360055 7.71658 -90.876 11.4291 -1.1254 -1.63344 -0.242277 -1.19618 -1.58235 -22.7706 -0.582558 -1.89606 -2.75792 -0.582547 -1.89607 102.209 -50.8127 -82.1018 31.5572 0.938251 -2.58986 -3.0477 -22.3652 -14.3667 -10.8147 -0.7832 3.36622 -80.7533 -53.3942 92.6222 -21.3162 10.3421 -19.3192 21.497 30.8566 -42.1962 -7.24995 0.000914996 -6.38217 -2.36298 -7.14709 -2.05948 -18.652 -6.18079 -5.45982 
